<svg fill="none" height="56" viewBox="0 0 56 56" width="56" xmlns="http://www.w3.org/2000/svg"><circle cx="28" cy="28" fill="#fff" r="28"/><g fill="#202f42"><path d="m22.6848 32.0515c1.9028-3.8739 2.8542-5.8108 4.2237-6.2724.7088-.2388 1.4742-.2388 2.183 0 1.3695.4616 2.3209 2.3985 4.2237 6.2724l1.0545 2.1469c.4916 1.0007.7373 1.501.7956 1.842.2414 1.4144-.8051 2.7181-2.2148 2.7591-.3398.0099-.8705-.1355-1.9318-.4264-.6065-.1662-.9098-.2493-1.2131-.3107-1.1921-.2412-2.4191-.2412-3.6112 0-.3033.0614-.6066.1445-1.2131.3107-1.0613.2909-1.592.4363-1.9318.4264-1.4097-.041-2.4562-1.3447-2.2147-2.7591.0582-.341.3039-.8413.7955-1.842z"/><path d="m20.9737 20.233c.4942 1.9569 1.8916 3.2599 3.1211 2.9103s1.8257-2.2193 1.3315-4.1762c-.4942-1.957-1.8916-3.26-3.1211-2.9104s-1.8257 2.2193-1.3315 4.1763z"/><path d="m35.0263 20.233c-.4942 1.9569-1.8916 3.2599-3.1211 2.9103s-1.8257-2.2193-1.3315-4.1762c.4942-1.957 1.8916-3.26 3.1211-2.9104s1.8257 2.2193 1.3315 4.1763z"/><path d="m16.242 28.3565c.54 1.4461 1.8096 2.3244 2.8358 1.9618 1.0261-.3626 1.4202-1.8288.8802-3.2748-.54-1.4461-1.8096-2.3244-2.8358-1.9618-1.0261.3626-1.4202 1.8288-.8802 3.2748z"/><path d="m39.758 28.3565c-.54 1.4461-1.8096 2.3244-2.8358 1.9618-1.0261-.3626-1.4202-1.8288-.8802-3.2748.54-1.4461 1.8096-2.3244 2.8358-1.9618 1.0261.3626 1.4202 1.8288.8802 3.2748z"/></g></svg>