<svg fill="none" height="23" viewBox="0 0 131 23" width="131" xmlns="http://www.w3.org/2000/svg"><g fill="#fff"><path d="m48.2453.610807h2.6914c.573 0 1.101.3105 1.38.811363l7.7872 13.42263-.4583-12.65437c0-.8724.7077-1.579623 1.5801-1.579623h2.4928c.8728 0 1.5801.707223 1.5801 1.579623v18.22837c0 .8724-.7073 1.5796-1.5801 1.5796h-4.4056c-.5518 0-1.0638-.2882-1.3505-.76l-11.0676-18.22789c-.6389-1.05259.1187-2.399703 1.3505-2.399703z"/><path d="m51.2429 14.0097.3822 6.6842c.0329.7107-.5343 1.3045-1.2454 1.3045h-3.1001c-.6884 0-1.2469-.558-1.2469-1.2468v-12.30663c0-.80555 1.0473-1.1175 1.4881-.4437l3.5201 5.38363c.1221.1865.1918.402.202.6248z"/><path d="m27.0368 7.02958c-1.0851 1.08118-1.6276 2.50628-1.6276 4.27532 0 1.769.5425 3.1941 1.6276 4.2753 1.085 1.0811 2.5014 1.6212 4.2496 1.6212 1.7477 0 3.1641-.5401 4.2491-1.6212 1.0851-1.0812 1.6276-2.5063 1.6276-4.2753 0-1.76904-.5425-3.19414-1.6276-4.27532-1.085-1.08069-2.5014-1.62176-4.2491-1.62176-1.7482 0-3.1646.54107-4.2496 1.62176zm-4.1746 12.26492c-2.2205-2.2098-3.3307-4.873-3.3307-7.9896 0-3.11664 1.1102-5.77937 3.3307-7.98968 2.2195-2.20982 5.0281-3.31522 8.4242-3.31522 3.3946 0 6.2037 1.1054 8.4237 3.31522 2.2199 2.21031 3.3307 4.87304 3.3307 7.98968 0 3.1166-1.1108 5.7798-3.3307 7.9896-2.22 2.2103-5.0286 3.3153-8.4237 3.3153-3.3961 0-6.2047-1.1045-8.4242-3.3153z"/><path d="m114.746 7.02958c-1.085 1.08118-1.628 2.50628-1.628 4.27532 0 1.769.543 3.1941 1.628 4.2753 1.085 1.0811 2.501 1.6212 4.25 1.6212 1.747 0 3.164-.5401 4.249-1.6212 1.085-1.0812 1.627-2.5063 1.627-4.2753 0-1.76904-.542-3.19414-1.627-4.27532-1.085-1.08069-2.502-1.62176-4.249-1.62176-1.749 0-3.165.54107-4.25 1.62176zm-4.175 12.26492c-2.22-2.2098-3.33-4.873-3.33-7.9896 0-3.11664 1.11-5.77937 3.33-7.98968 2.22-2.20982 5.028-3.31522 8.425-3.31522 3.394 0 6.203 1.1054 8.423 3.31522 2.22 2.21031 3.331 4.87304 3.331 7.98968 0 3.1166-1.111 5.7798-3.331 7.9896-2.22 2.2103-5.028 3.3153-8.423 3.3153-3.397 0-6.205-1.1045-8.425-3.3153z"/><path d="m93.2596 21.9984h-3.293c-.6515 0-1.18-.528-1.18-1.1795v-19.02858c0-.65152.528-1.179513 1.18-1.179513h3.293c.6515 0 1.1795.527993 1.1795 1.179513v19.02858c0 .6515-.528 1.1795-1.1795 1.1795z"/><path d="m101.363 12.9261c1.657 2.4661 4.089 5.2713 5.751 7.1013.687.7576.148 1.971-.875 1.971h-3.761c-.334 0-.651-.1409-.875-.388-1.398-1.5447-5.9388-6.735-7.9345-10.7948 0 0 2.5833.0465 4.6013.2403 1.2604.1206 2.3862.8191 3.0932 1.8702z"/><path d="m96.295 7.40812 4.115-6.24534c.216-.343437.593-.551728.999-.551728h3.525c.949 0 1.51 1.064218.973 1.847008l-4.282 5.92758c-.197.2887-.513.47422-.861.50764l-3.3592.31729c-.9746.09252-1.631-.97413-1.1098-1.80245z"/><path d="m75.1342 5.14966c-.5609.5711-.8414 1.32434-.8414 2.25874 0 .93489.2805 1.68764.8414 2.25875.5609.57155 1.2929.85685 2.1963.85685.9039 0 1.6358-.2853 2.1967-.85685.5609-.57111.8414-1.32386.8414-2.25875-.0005-.9344-.2805-1.68764-.8414-2.25874-.5609-.57111-1.2928-.8569-2.1967-.8569-.9034 0-1.6354.28579-2.1963.8569zm-3.3995 7.49464c-1.475-1.4484-2.2122-3.19368-2.2122-5.2359s.7372-3.78702 2.2122-5.23537c1.4745-1.448348 3.3399-2.1725236 5.5958-2.1725236 2.2558 0 4.1212.7241756 5.5962 2.1725236 1.475 1.44835 2.2123 3.19315 2.2123 5.23537s-.7373 3.7875-2.2123 5.2359c-1.475 1.4483-3.3404 2.172-5.5962 2.1725-2.2559 0-4.1213-.7242-5.5958-2.1725z"/><path d="m69.7368 20.8189v-2.8347c0-.6515.528-1.1795 1.1795-1.1795l12.8288-.0005c.6515 0 1.1795.5285 1.1795 1.18v2.8347c0 .6515-.528 1.1795-1.1795 1.1795h-12.8288c-.6515 0-1.1795-.528-1.1795-1.1795z"/><path d="m4.47293 21.9984h-3.29294c-.651512 0-1.17999-.528-1.17999-1.1795v-19.02858c0-.65152.527994-1.179513 1.17999-1.179513h3.29294c.65151 0 1.17951.527993 1.17951 1.179513v19.02858c0 .6515-.528 1.1795-1.17951 1.1795z"/><path d="m12.576 12.9261c1.6571 2.4661 4.0893 5.2713 5.7513 7.1013.6873.7576.1482 1.971-.8749 1.971h-3.7608c-.3338 0-.6511-.1409-.8748-.388-1.3985-1.5447-5.93925-6.735-7.93496-10.7948 0 0 2.58329.0465 4.60129.2403 1.26037.1206 2.38667.8191 3.09287 1.8702z"/><path d="m7.50815 7.40812 4.11545-6.24534c.2156-.343437.5929-.551728.9983-.551728h3.525c.9494 0 1.5099 1.064218.9732 1.847008l-4.2816 5.92758c-.1977.2887-.5135.47422-.8618.50764l-3.35879.31729c-.97461.09252-1.63097-.97413-1.10976-1.80245z"/></g></svg>