<svg width="254" height="55" viewBox="0 0 254 55" fill="none" xmlns="http://www.w3.org/2000/svg">
<g clip-path="url(#clip0_79_4041)">
<rect width="253.237" height="54.9395" rx="27.4698" fill="#E439A3"/>
<path d="M96.7482 8.62107H101.519C102.535 8.62107 103.471 9.17148 103.965 10.0594L117.769 33.8533L116.957 11.4212C116.957 9.87474 118.212 8.62107 119.758 8.62107H124.177C125.724 8.62107 126.978 9.87474 126.978 11.4212V43.734C126.978 45.2805 125.724 46.5342 124.177 46.5342H116.367C115.389 46.5342 114.482 46.0233 113.973 45.1869L94.3542 12.8749C93.2216 11.009 94.5646 8.62107 96.7482 8.62107Z" fill="white"/>
<path d="M102.062 32.3729L102.74 44.2218C102.798 45.4814 101.792 46.5342 100.532 46.5342H95.0364C93.8162 46.5342 92.8262 45.545 92.8262 44.3239V22.5084C92.8262 21.0805 94.6826 20.5275 95.464 21.7219L101.704 31.2652C101.92 31.5958 102.044 31.9779 102.062 32.3729Z" fill="white"/>
<path d="M59.1525 19.9987C57.229 21.9153 56.2673 24.4415 56.2673 27.5774C56.2673 30.7133 57.229 33.2395 59.1525 35.1561C61.0759 37.0726 63.5867 38.0301 66.6856 38.0301C69.7837 38.0301 72.2945 37.0726 74.2179 35.1561C76.1414 33.2395 77.1031 30.7133 77.1031 27.5774C77.1031 24.4415 76.1414 21.9153 74.2179 19.9987C72.2945 18.083 69.7837 17.1239 66.6856 17.1239C63.5867 17.1239 61.0759 18.083 59.1525 19.9987ZM51.7524 41.7404C47.8162 37.8231 45.8481 33.1021 45.8481 27.5774C45.8481 22.0527 47.8162 17.3326 51.7524 13.4144C55.6869 9.49714 60.6655 7.53764 66.6856 7.53764C72.7032 7.53764 77.6827 9.49714 81.618 13.4144C85.5533 17.3326 87.5223 22.0527 87.5223 27.5774C87.5223 33.1021 85.5533 37.8231 81.618 41.7404C77.6827 45.6585 72.7041 47.6172 66.6856 47.6172C60.6655 47.6172 55.6869 45.6594 51.7524 41.7404Z" fill="white"/>
<path d="M214.631 19.9987C212.708 21.9153 211.746 24.4415 211.746 27.5774C211.746 30.7133 212.708 33.2395 214.631 35.1561C216.555 37.0726 219.066 38.0301 222.165 38.0301C225.263 38.0301 227.774 37.0726 229.697 35.1561C231.62 33.2395 232.582 30.7133 232.582 27.5774C232.582 24.4415 231.62 21.9153 229.697 19.9987C227.774 18.083 225.263 17.1239 222.165 17.1239C219.066 17.1239 216.555 18.083 214.631 19.9987ZM207.231 41.7404C203.295 37.8231 201.327 33.1021 201.327 27.5774C201.327 22.0527 203.295 17.3326 207.231 13.4144C211.166 9.49714 216.144 7.53764 222.165 7.53764C228.182 7.53764 233.162 9.49714 237.097 13.4144C241.032 17.3326 243.001 22.0527 243.001 27.5774C243.001 33.1021 241.032 37.8231 237.097 41.7404C233.162 45.6585 228.183 47.6172 222.165 47.6172C216.144 47.6172 211.166 45.6594 207.231 41.7404Z" fill="white"/>
<path d="M176.543 46.5342H170.706C169.551 46.5342 168.614 45.5982 168.614 44.4433V10.7119C168.614 9.55703 169.55 8.62107 170.706 8.62107H176.543C177.698 8.62107 178.634 9.55703 178.634 10.7119V44.4433C178.634 45.5982 177.698 46.5342 176.543 46.5342Z" fill="white"/>
<path d="M190.907 30.4511C193.845 34.8226 198.156 39.7952 201.102 43.0393C202.321 44.3822 201.365 46.5332 199.552 46.5332H192.885C192.293 46.5332 191.731 46.2833 191.334 45.8454C188.855 43.1071 180.806 33.9064 177.268 26.7098C177.268 26.7098 181.847 26.7922 185.425 27.1357C187.659 27.3495 189.655 28.5877 190.907 30.4511Z" fill="white"/>
<path d="M181.924 20.6699L189.219 9.59898C189.601 8.99018 190.27 8.62095 190.989 8.62095H197.237C198.92 8.62095 199.914 10.5075 198.962 11.8951L191.373 22.4027C191.022 22.9145 190.462 23.2433 189.845 23.3026L183.891 23.865C182.163 24.029 181 22.1382 181.924 20.6699Z" fill="white"/>
<path d="M144.413 16.6652C143.419 17.6775 142.922 19.0128 142.922 20.6692C142.922 22.3264 143.419 23.6608 144.413 24.6732C145.407 25.6864 146.705 26.1922 148.306 26.1922C149.909 26.1922 151.206 25.6864 152.2 24.6732C153.195 23.6608 153.692 22.3264 153.692 20.6692C153.691 19.0128 153.195 17.6775 152.2 16.6652C151.206 15.6528 149.909 15.1462 148.306 15.1462C146.705 15.1462 145.407 15.6528 144.413 16.6652ZM138.387 29.9506C135.772 27.3832 134.465 24.2893 134.465 20.6692C134.465 17.049 135.772 13.956 138.387 11.3886C141.001 8.82116 144.307 7.53744 148.306 7.53744C152.305 7.53744 155.612 8.82116 158.227 11.3886C160.841 13.956 162.148 17.049 162.148 20.6692C162.148 24.2893 160.841 27.3832 158.227 29.9506C155.612 32.518 152.305 33.8009 148.306 33.8018C144.307 33.8018 141.001 32.518 138.387 29.9506Z" fill="white"/>
<path d="M134.845 44.4423V39.4174C134.845 38.2624 135.781 37.3265 136.936 37.3265L159.677 37.3256C160.832 37.3256 161.768 38.2624 161.768 39.4174V44.4423C161.768 45.5972 160.832 46.5332 159.677 46.5332H136.936C135.781 46.5332 134.845 45.5972 134.845 44.4423Z" fill="white"/>
<path d="M19.1541 46.5342H13.3168C12.1619 46.5342 11.2251 45.5982 11.2251 44.4433V10.7119C11.2251 9.55703 12.1611 8.62107 13.3168 8.62107H19.1541C20.309 8.62107 21.245 9.55703 21.245 10.7119V44.4433C21.245 45.5982 20.309 46.5342 19.1541 46.5342Z" fill="white"/>
<path d="M33.5181 30.4511C36.4556 34.8226 40.7671 39.7952 43.7132 43.0393C44.9316 44.3822 43.9759 46.5332 42.1624 46.5332H35.4956C34.904 46.5332 34.3416 46.2833 33.9449 45.8454C31.4659 43.1071 23.4167 33.9064 19.8789 26.7098C19.8789 26.7098 24.4582 26.7922 28.0355 27.1357C30.2697 27.3495 32.2662 28.5877 33.5181 30.4511Z" fill="white"/>
<path d="M24.5351 20.6699L31.8304 9.59898C32.2125 8.99018 32.8814 8.62095 33.6001 8.62095H39.8487C41.5317 8.62095 42.5252 10.5075 41.5738 11.8951L33.984 22.4027C33.6336 22.9145 33.0738 23.2433 32.4564 23.3026L26.5023 23.865C24.7747 24.029 23.6112 22.1382 24.5351 20.6699Z" fill="white"/>
</g>
<defs>
<clipPath id="clip0_79_4041">
<rect width="253.237" height="54.9395" fill="white"/>
</clipPath>
</defs>
</svg>
